<?xml version="1.0" encoding="utf-8"?>
<!-- Svg Vector Icons : http://www.onlinewebfonts.com/icon -->
<!DOCTYPE svg PUBLIC "-//W3C//DTD SVG 1.1//EN" "http://www.w3.org/Graphics/SVG/1.1/DTD/svg11.dtd">
<svg version="1.1" xmlns="http://www.w3.org/2000/svg" xmlns:xlink="http://www.w3.org/1999/xlink" x="0px" y="0px" viewBox="0 0 1000 1000" enable-background="new 0 0 1000 1000" xml:space="preserve">
<metadata> Svg Vector Icons : http://www.onlinewebfonts.com/icon </metadata>
<g><g transform="translate(0.000000,511.000000) scale(0.100000,-0.100000)"><path d="M1150,4310v-700h525h525v-700v-700h-525h-525v-700V810h525h525V110v-700h-525h-525v-700v-700h525h525v-700v-700h-525h-525v-700v-700h4025h4025V110v4900H5175H1150V4310z M7800,2910v-700H5700H3600v700v700h2100h2100V2910z"/><path d="M3950,2910v-350h1750h1750v350v350H5700H3950V2910z"/><path d="M800,2910v-350h525h525v350v350h-525H800V2910z"/><path d="M800,110v-350h525h525v350v350h-525H800V110z"/><path d="M800-2690v-350h525h525v350v350h-525H800V-2690z"/></g></g>
</svg>