<?xml version="1.0" encoding="utf-8"?>
<!-- Svg Vector Icons : http://www.onlinewebfonts.com/icon -->
<!DOCTYPE svg PUBLIC "-//W3C//DTD SVG 1.1//EN" "http://www.w3.org/Graphics/SVG/1.1/DTD/svg11.dtd">
<svg version="1.1" xmlns="http://www.w3.org/2000/svg" xmlns:xlink="http://www.w3.org/1999/xlink" x="0px" y="0px" viewBox="0 0 1000 1000" enable-background="new 0 0 1000 1000" xml:space="preserve">
<metadata> Svg Vector Icons : http://www.onlinewebfonts.com/icon </metadata>
<g><path d="M883.6,990H748.2c-24.9,0-45.1-19.9-45.1-44.5v-89.1c0-24.6,20.2-44.5,45.1-44.5h90.3V544.5H522.6v267.3h45.1c24.9,0,45.1,19.9,45.1,44.5v89.1c0,24.6-20.2,44.5-45.1,44.5H432.3c-24.9,0-45.1-19.9-45.1-44.5v-89.1c0-24.6,20.2-44.5,45.1-44.5h45.1V544.5H161.5v267.3h90.3c24.9,0,45.1,19.9,45.1,44.5v89.1c0,24.6-20.2,44.5-45.1,44.5H116.4c-24.9,0-45.1-19.9-45.1-44.5v-89.1c0-24.6,20.2-44.5,45.1-44.5V544.5V500h45.1h315.9V188.2h-45.1c-24.9,0-45.1-19.9-45.1-44.5V54.5c0-24.6,20.2-44.5,45.1-44.5h135.4c24.9,0,45.1,19.9,45.1,44.5v89.1c0,24.6-20.2,44.5-45.1,44.5h-45.1V500h315.9h45.1v44.5v267.3c24.9,0,45.1,19.9,45.1,44.5v89.1C928.8,970.1,908.5,990,883.6,990z"/></g>
</svg>